<mxfile host="app.diagrams.net" modified="2023-10-26T10:39:16.844Z" agent="Mozilla/5.0 (Macintosh; Intel Mac OS X 10_15_7) AppleWebKit/537.36 (KHTML, like Gecko) Chrome/118.0.0.0 Safari/537.36" etag="88Ew2Ak3uRfBGkMXD6Kz" version="22.0.8" type="github">
  <diagram name="Page-1" id="e7e014a7-5840-1c2e-5031-d8a46d1fe8dd">
    <mxGraphModel dx="954" dy="581" grid="1" gridSize="10" guides="1" tooltips="1" connect="1" arrows="1" fold="1" page="1" pageScale="1" pageWidth="3300" pageHeight="2339" background="none" math="0" shadow="0">
      <root>
        <mxCell id="0" />
        <mxCell id="1" parent="0" />
        <mxCell id="PNEzz4ztSn_GB-Nwg4ay-43" value="" style="edgeStyle=orthogonalEdgeStyle;rounded=0;orthogonalLoop=1;jettySize=auto;html=1;" edge="1" parent="1" source="PNEzz4ztSn_GB-Nwg4ay-41">
          <mxGeometry relative="1" as="geometry">
            <mxPoint x="540" y="210" as="targetPoint" />
          </mxGeometry>
        </mxCell>
        <mxCell id="PNEzz4ztSn_GB-Nwg4ay-41" value="设置模板" style="ellipse;whiteSpace=wrap;html=1;" vertex="1" parent="1">
          <mxGeometry x="480" y="50" width="120" height="80" as="geometry" />
        </mxCell>
        <mxCell id="PNEzz4ztSn_GB-Nwg4ay-44" value="查看word在线编辑" style="whiteSpace=wrap;html=1;" vertex="1" parent="1">
          <mxGeometry x="480" y="510" width="120" height="60" as="geometry" />
        </mxCell>
        <mxCell id="PNEzz4ztSn_GB-Nwg4ay-47" value="" style="edgeStyle=orthogonalEdgeStyle;rounded=0;orthogonalLoop=1;jettySize=auto;html=1;" edge="1" parent="1" source="PNEzz4ztSn_GB-Nwg4ay-46" target="PNEzz4ztSn_GB-Nwg4ay-41">
          <mxGeometry relative="1" as="geometry" />
        </mxCell>
        <mxCell id="PNEzz4ztSn_GB-Nwg4ay-48" style="edgeStyle=orthogonalEdgeStyle;rounded=0;orthogonalLoop=1;jettySize=auto;html=1;" edge="1" parent="1" source="PNEzz4ztSn_GB-Nwg4ay-46">
          <mxGeometry relative="1" as="geometry">
            <mxPoint x="540" y="320" as="targetPoint" />
          </mxGeometry>
        </mxCell>
        <mxCell id="PNEzz4ztSn_GB-Nwg4ay-46" value="&lt;span style=&quot;color: rgb(0, 0, 0); font-family: Helvetica; font-size: 12px; font-style: normal; font-variant-ligatures: normal; font-variant-caps: normal; font-weight: 400; letter-spacing: normal; orphans: 2; text-align: center; text-indent: 0px; text-transform: none; widows: 2; word-spacing: 0px; -webkit-text-stroke-width: 0px; background-color: rgb(251, 251, 251); text-decoration-thickness: initial; text-decoration-style: initial; text-decoration-color: initial; float: none; display: inline !important;&quot;&gt;设置word模板字段&lt;/span&gt;" style="rounded=0;whiteSpace=wrap;html=1;" vertex="1" parent="1">
          <mxGeometry x="480" y="210" width="120" height="60" as="geometry" />
        </mxCell>
        <mxCell id="PNEzz4ztSn_GB-Nwg4ay-55" style="edgeStyle=orthogonalEdgeStyle;rounded=0;orthogonalLoop=1;jettySize=auto;html=1;entryX=0;entryY=0.5;entryDx=0;entryDy=0;" edge="1" parent="1" source="PNEzz4ztSn_GB-Nwg4ay-57" target="PNEzz4ztSn_GB-Nwg4ay-58">
          <mxGeometry relative="1" as="geometry">
            <mxPoint x="850" y="310" as="targetPoint" />
          </mxGeometry>
        </mxCell>
        <mxCell id="PNEzz4ztSn_GB-Nwg4ay-56" value="否" style="edgeLabel;html=1;align=center;verticalAlign=middle;resizable=0;points=[];" vertex="1" connectable="0" parent="PNEzz4ztSn_GB-Nwg4ay-55">
          <mxGeometry x="-0.5294" relative="1" as="geometry">
            <mxPoint as="offset" />
          </mxGeometry>
        </mxCell>
        <mxCell id="PNEzz4ztSn_GB-Nwg4ay-62" value="是" style="edgeStyle=orthogonalEdgeStyle;rounded=0;orthogonalLoop=1;jettySize=auto;html=1;" edge="1" parent="1" source="PNEzz4ztSn_GB-Nwg4ay-57" target="PNEzz4ztSn_GB-Nwg4ay-44">
          <mxGeometry relative="1" as="geometry" />
        </mxCell>
        <mxCell id="PNEzz4ztSn_GB-Nwg4ay-57" value="是否已经生成word" style="rhombus;whiteSpace=wrap;html=1;" vertex="1" parent="1">
          <mxGeometry x="500" y="320" width="80" height="80" as="geometry" />
        </mxCell>
        <mxCell id="PNEzz4ztSn_GB-Nwg4ay-61" style="edgeStyle=orthogonalEdgeStyle;rounded=0;orthogonalLoop=1;jettySize=auto;html=1;entryX=1;entryY=0.5;entryDx=0;entryDy=0;" edge="1" parent="1" source="PNEzz4ztSn_GB-Nwg4ay-58" target="PNEzz4ztSn_GB-Nwg4ay-44">
          <mxGeometry relative="1" as="geometry">
            <mxPoint x="710" y="550" as="targetPoint" />
            <Array as="points">
              <mxPoint x="710" y="505" />
              <mxPoint x="711" y="505" />
              <mxPoint x="711" y="530" />
            </Array>
          </mxGeometry>
        </mxCell>
        <mxCell id="PNEzz4ztSn_GB-Nwg4ay-58" value="选择word文件上传" style="rounded=0;whiteSpace=wrap;html=1;" vertex="1" parent="1">
          <mxGeometry x="650" y="400" width="120" height="60" as="geometry" />
        </mxCell>
        <mxCell id="PNEzz4ztSn_GB-Nwg4ay-71" style="edgeStyle=orthogonalEdgeStyle;rounded=0;orthogonalLoop=1;jettySize=auto;html=1;" edge="1" parent="1" source="PNEzz4ztSn_GB-Nwg4ay-65" target="PNEzz4ztSn_GB-Nwg4ay-67">
          <mxGeometry relative="1" as="geometry" />
        </mxCell>
        <mxCell id="PNEzz4ztSn_GB-Nwg4ay-65" value="Actor" style="shape=umlActor;verticalLabelPosition=bottom;verticalAlign=top;html=1;outlineConnect=0;" vertex="1" parent="1">
          <mxGeometry x="330" y="960" width="30" height="60" as="geometry" />
        </mxCell>
        <mxCell id="PNEzz4ztSn_GB-Nwg4ay-67" value="设置word模板" style="ellipse;whiteSpace=wrap;html=1;" vertex="1" parent="1">
          <mxGeometry x="510" y="955" width="140" height="70" as="geometry" />
        </mxCell>
      </root>
    </mxGraphModel>
  </diagram>
</mxfile>
